<?xml version="1.0" encoding="UTF-8"?>
<svg width="48" height="48" viewBox="0 0 48 48" fill="none" xmlns="http://www.w3.org/2000/svg">
  <rect width="48" height="48" rx="24" fill="#E3F2FD"/>
  <path d="M28 14C28 11.7909 26.2091 10 24 10C21.7909 10 20 11.7909 20 14V30.1716C18.1644 31.4814 17 33.5786 17 36C17 40.4183 20.5817 44 25 44C29.4183 44 33 40.4183 33 36C33 33.5786 31.8356 31.4814 30 30.1716V14Z" stroke="#2196F3" stroke-width="3"/>
  <path d="M24 38C25.6569 38 27 36.6569 27 35C27 33.3431 25.6569 32 24 32C22.3431 32 21 33.3431 21 35C21 36.6569 22.3431 38 24 38Z" fill="#2196F3"/>
</svg> 