<?xml version="1.0" encoding="UTF-8"?>
<svg width="48" height="48" viewBox="0 0 48 48" fill="none" xmlns="http://www.w3.org/2000/svg">
  <rect width="48" height="48" rx="24" fill="#FFF3E0"/>
  <path d="M24 12C24 12 28 18 28 24C28 30 24 36 24 36C24 36 20 30 20 24C20 18 24 12 24 12Z" fill="#FF7043"/>
  <path d="M30 20C30 20 33 24 33 28C33 32 30 36 30 36C30 36 27 32 27 28C27 24 30 20 30 20Z" fill="#FF7043"/>
  <path d="M18 20C18 20 21 24 21 28C21 32 18 36 18 36C18 36 15 32 15 28C15 24 18 20 18 20Z" fill="#FF7043"/>
</svg> 